<svg xmlns="http://www.w3.org/2000/svg" viewBox="0 0 213.41 213.41"><g data-name="Layer 2"><g data-name="Layer 1" stroke="#010101" stroke-width="5"><path d="M2.5 2.5h208.41v208.41H2.5z" style="isolation:isolate" opacity=".99" fill="#fff"/><path d="M64.37 41.58A19.54 19.54 0 1144.83 22a19.54 19.54 0 0119.54 19.58zm123.75 130.26a19.54 19.54 0 11-19.54-19.54 19.54 19.54 0 0119.54 19.54zm-123.75 0a19.54 19.54 0 11-19.54-19.54 19.54 19.54 0 0119.54 19.54zm61.88-65.13a19.54 19.54 0 11-19.54-19.54 19.54 19.54 0 0119.54 19.54zm61.87-65.13A19.54 19.54 0 11168.58 22a19.54 19.54 0 0119.54 19.58z" style="isolation:isolate" opacity=".99" fill="#010101" stroke-linejoin="round"/></g></g></svg>