<svg xmlns="http://www.w3.org/2000/svg" viewBox="0 0 213.41 213.41"><defs><style>.cls-1{fill:#fff;}.cls-1,.cls-2{stroke:#010101;stroke-width:5px;opacity:0.99;isolation:isolate;}.cls-2{fill:#010101;stroke-linejoin:round;}</style></defs><title>dice_5</title><g id="Layer_2" data-name="Layer 2"><g id="Layer_1-2" data-name="Layer 1"><path class="cls-1" d="M2.5,2.5H210.91V210.91H2.5Z"/><path class="cls-2" d="M64.37,41.58A19.54,19.54,0,1,1,44.83,22,19.54,19.54,0,0,1,64.37,41.58Z"/><path class="cls-2" d="M188.12,171.84a19.54,19.54,0,1,1-19.54-19.54A19.54,19.54,0,0,1,188.12,171.84Z"/><path class="cls-2" d="M64.37,171.84A19.54,19.54,0,1,1,44.83,152.3,19.54,19.54,0,0,1,64.37,171.84Z"/><path class="cls-2" d="M126.25,106.71a19.54,19.54,0,1,1-19.54-19.54A19.54,19.54,0,0,1,126.25,106.71Z"/><path class="cls-2" d="M188.12,41.58A19.54,19.54,0,1,1,168.58,22,19.54,19.54,0,0,1,188.12,41.58Z"/></g></g></svg>